<svg id="visual" viewBox="0 0 900 600" width="900" height="600" xmlns="http://www.w3.org/2000/svg" xmlns:xlink="http://www.w3.org/1999/xlink" version="1.1"><rect x="0" y="0" width="900" height="600" fill="#f1f1f1"></rect><path d="M0 538L11.5 532.2C23 526.3 46 514.7 69 508.5C92 502.3 115 501.7 138.2 497.8C161.3 494 184.7 487 207.8 492.2C231 497.3 254 514.7 277 522.8C300 531 323 530 346 516.8C369 503.7 392 478.3 415.2 476.7C438.3 475 461.7 497 484.8 495.3C508 493.7 531 468.3 554 460.2C577 452 600 461 623 473.5C646 486 669 502 692.2 501.3C715.3 500.7 738.7 483.3 761.8 472.3C785 461.3 808 456.7 831 449C854 441.3 877 430.7 888.5 425.3L900 420L900 601L888.5 601C877 601 854 601 831 601C808 601 785 601 761.8 601C738.7 601 715.3 601 692.2 601C669 601 646 601 623 601C600 601 577 601 554 601C531 601 508 601 484.8 601C461.7 601 438.3 601 415.2 601C392 601 369 601 346 601C323 601 300 601 277 601C254 601 231 601 207.8 601C184.7 601 161.3 601 138.2 601C115 601 92 601 69 601C46 601 23 601 11.5 601L0 601Z" fill="#0F79B9" stroke-linecap="round" stroke-linejoin="miter"></path></svg>