<svg id="visual" viewBox="0 0 900 600" width="900" height="600" xmlns="http://www.w3.org/2000/svg" xmlns:xlink="http://www.w3.org/1999/xlink" version="1.1"><rect x="0" y="0" width="900" height="600" fill="#f1f1f1"></rect><path d="M0 365L11.5 359.3C23 353.7 46 342.3 69 364.7C92 387 115 443 138.2 467C161.3 491 184.7 483 207.8 467.7C231 452.3 254 429.7 277 413.7C300 397.7 323 388.3 346 399C369 409.7 392 440.3 415.2 461.8C438.3 483.3 461.7 495.7 484.8 488.3C508 481 531 454 554 442.8C577 431.7 600 436.3 623 423C646 409.7 669 378.3 692.2 362.7C715.3 347 738.7 347 761.8 374C785 401 808 455 831 456.2C854 457.3 877 405.7 888.5 379.8L900 354L900 601L888.5 601C877 601 854 601 831 601C808 601 785 601 761.8 601C738.7 601 715.3 601 692.2 601C669 601 646 601 623 601C600 601 577 601 554 601C531 601 508 601 484.8 601C461.7 601 438.3 601 415.2 601C392 601 369 601 346 601C323 601 300 601 277 601C254 601 231 601 207.8 601C184.7 601 161.3 601 138.2 601C115 601 92 601 69 601C46 601 23 601 11.5 601L0 601Z" fill="#0F79B9" stroke-linecap="round" stroke-linejoin="miter"></path></svg>