<svg id="visual" viewBox="0 0 900 600" width="900" height="600" xmlns="http://www.w3.org/2000/svg" xmlns:xlink="http://www.w3.org/1999/xlink" version="1.1"><rect x="0" y="0" width="900" height="600" fill="#f1f1f1"></rect><path d="M0 356L25 337.7C50 319.3 100 282.7 150 272C200 261.3 250 276.7 300 301.5C350 326.3 400 360.7 450 343.5C500 326.3 550 257.7 600 249.2C650 240.7 700 292.3 750 297.8C800 303.3 850 262.7 875 242.3L900 222L900 601L875 601C850 601 800 601 750 601C700 601 650 601 600 601C550 601 500 601 450 601C400 601 350 601 300 601C250 601 200 601 150 601C100 601 50 601 25 601L0 601Z" fill="#0F79B9" stroke-linecap="round" stroke-linejoin="miter"></path></svg>