<svg id="visual" viewBox="0 0 900 600" width="900" height="600" xmlns="http://www.w3.org/2000/svg" xmlns:xlink="http://www.w3.org/1999/xlink" version="1.1"><rect x="0" y="0" width="900" height="600" fill="#ffffff"></rect><path d="M0 481L21.5 474C43 467 86 453 128.8 442.2C171.7 431.3 214.3 423.7 257.2 430.2C300 436.7 343 457.3 385.8 461C428.7 464.7 471.3 451.3 514.2 441.2C557 431 600 424 642.8 431.2C685.7 438.3 728.3 459.7 771.2 460.3C814 461 857 441 878.5 431L900 421L900 601L878.5 601C857 601 814 601 771.2 601C728.3 601 685.7 601 642.8 601C600 601 557 601 514.2 601C471.3 601 428.7 601 385.8 601C343 601 300 601 257.2 601C214.3 601 171.7 601 128.8 601C86 601 43 601 21.5 601L0 601Z" fill="#0F79B9" stroke-linecap="round" stroke-linejoin="miter"></path></svg>