<svg id="visual" viewBox="0 0 900 600" width="900" height="600" xmlns="http://www.w3.org/2000/svg" xmlns:xlink="http://www.w3.org/1999/xlink" version="1.1"><path d="M0 211L13.7 219C27.3 227 54.7 243 82 231C109.3 219 136.7 179 163.8 169C191 159 218 179 245.2 174C272.3 169 299.7 139 327 143C354.3 147 381.7 185 409 202C436.3 219 463.7 215 491 205C518.3 195 545.7 179 573 184C600.3 189 627.7 215 654.8 212C682 209 709 177 736.2 180C763.3 183 790.7 221 818 216C845.3 211 872.7 163 886.3 139L900 115L900 0L886.3 0C872.7 0 845.3 0 818 0C790.7 0 763.3 0 736.2 0C709 0 682 0 654.8 0C627.7 0 600.3 0 573 0C545.7 0 518.3 0 491 0C463.7 0 436.3 0 409 0C381.7 0 354.3 0 327 0C299.7 0 272.3 0 245.2 0C218 0 191 0 163.8 0C136.7 0 109.3 0 82 0C54.7 0 27.3 0 13.7 0L0 0Z" fill="#549ace"></path><path d="M0 361L13.7 358C27.3 355 54.7 349 82 323C109.3 297 136.7 251 163.8 244C191 237 218 269 245.2 278C272.3 287 299.7 273 327 282C354.3 291 381.7 323 409 330C436.3 337 463.7 319 491 300C518.3 281 545.7 261 573 269C600.3 277 627.7 313 654.8 322C682 331 709 313 736.2 308C763.3 303 790.7 311 818 298C845.3 285 872.7 251 886.3 234L900 217L900 113L886.3 137C872.7 161 845.3 209 818 214C790.7 219 763.3 181 736.2 178C709 175 682 207 654.8 210C627.7 213 600.3 187 573 182C545.7 177 518.3 193 491 203C463.7 213 436.3 217 409 200C381.7 183 354.3 145 327 141C299.7 137 272.3 167 245.2 172C218 177 191 157 163.8 167C136.7 177 109.3 217 82 229C54.7 241 27.3 225 13.7 217L0 209Z" fill="#3989c4"></path><path d="M0 475L13.7 474C27.3 473 54.7 471 82 467C109.3 463 136.7 457 163.8 458C191 459 218 467 245.2 477C272.3 487 299.7 499 327 504C354.3 509 381.7 507 409 487C436.3 467 463.7 429 491 428C518.3 427 545.7 463 573 471C600.3 479 627.7 459 654.8 448C682 437 709 435 736.2 442C763.3 449 790.7 465 818 476C845.3 487 872.7 493 886.3 496L900 499L900 215L886.3 232C872.7 249 845.3 283 818 296C790.7 309 763.3 301 736.2 306C709 311 682 329 654.8 320C627.7 311 600.3 275 573 267C545.7 259 518.3 279 491 298C463.7 317 436.3 335 409 328C381.7 321 354.3 289 327 280C299.7 271 272.3 285 245.2 276C218 267 191 235 163.8 242C136.7 249 109.3 295 82 321C54.7 347 27.3 353 13.7 356L0 359Z" fill="#0f79b9"></path><path d="M0 535L13.7 532C27.3 529 54.7 523 82 516C109.3 509 136.7 501 163.8 500C191 499 218 505 245.2 515C272.3 525 299.7 539 327 544C354.3 549 381.7 545 409 533C436.3 521 463.7 501 491 502C518.3 503 545.7 525 573 531C600.3 537 627.7 527 654.8 524C682 521 709 525 736.2 526C763.3 527 790.7 525 818 528C845.3 531 872.7 539 886.3 543L900 547L900 497L886.3 494C872.7 491 845.3 485 818 474C790.7 463 763.3 447 736.2 440C709 433 682 435 654.8 446C627.7 457 600.3 477 573 469C545.7 461 518.3 425 491 426C463.7 427 436.3 465 409 485C381.7 505 354.3 507 327 502C299.7 497 272.3 485 245.2 475C218 465 191 457 163.8 456C136.7 455 109.3 461 82 465C54.7 469 27.3 471 13.7 472L0 473Z" fill="#0769a0"></path><path d="M0 601L13.7 601C27.3 601 54.7 601 82 601C109.3 601 136.7 601 163.8 601C191 601 218 601 245.2 601C272.3 601 299.7 601 327 601C354.3 601 381.7 601 409 601C436.3 601 463.7 601 491 601C518.3 601 545.7 601 573 601C600.3 601 627.7 601 654.8 601C682 601 709 601 736.2 601C763.3 601 790.7 601 818 601C845.3 601 872.7 601 886.3 601L900 601L900 545L886.3 541C872.7 537 845.3 529 818 526C790.7 523 763.3 525 736.2 524C709 523 682 519 654.8 522C627.7 525 600.3 535 573 529C545.7 523 518.3 501 491 500C463.7 499 436.3 519 409 531C381.7 543 354.3 547 327 542C299.7 537 272.3 523 245.2 513C218 503 191 497 163.8 498C136.7 499 109.3 507 82 514C54.7 521 27.3 527 13.7 530L0 533Z" fill="#035987"></path></svg>