<svg id="visual" viewBox="0 0 900 600" width="900" height="600" xmlns="http://www.w3.org/2000/svg" xmlns:xlink="http://www.w3.org/1999/xlink" version="1.1"><rect x="0" y="0" width="900" height="600" fill="#f4f4cb"></rect><path d="M0 365L21.5 371.5C43 378 86 391 128.8 388.5C171.7 386 214.3 368 257.2 365.5C300 363 343 376 385.8 391.8C428.7 407.7 471.3 426.3 514.2 420.2C557 414 600 383 642.8 368.7C685.7 354.3 728.3 356.7 771.2 361.7C814 366.7 857 374.3 878.5 378.2L900 382L900 601L878.5 601C857 601 814 601 771.2 601C728.3 601 685.7 601 642.8 601C600 601 557 601 514.2 601C471.3 601 428.7 601 385.8 601C343 601 300 601 257.2 601C214.3 601 171.7 601 128.8 601C86 601 43 601 21.5 601L0 601Z" fill="#fa7268"></path><path d="M0 402L21.5 402.7C43 403.3 86 404.7 128.8 406.8C171.7 409 214.3 412 257.2 410.5C300 409 343 403 385.8 412.3C428.7 421.7 471.3 446.3 514.2 445.8C557 445.3 600 419.7 642.8 417C685.7 414.3 728.3 434.7 771.2 446.3C814 458 857 461 878.5 462.5L900 464L900 601L878.5 601C857 601 814 601 771.2 601C728.3 601 685.7 601 642.8 601C600 601 557 601 514.2 601C471.3 601 428.7 601 385.8 601C343 601 300 601 257.2 601C214.3 601 171.7 601 128.8 601C86 601 43 601 21.5 601L0 601Z" fill="#ef5f67"></path><path d="M0 461L21.5 461.8C43 462.7 86 464.3 128.8 468.7C171.7 473 214.3 480 257.2 477C300 474 343 461 385.8 453.8C428.7 446.7 471.3 445.3 514.2 448.3C557 451.3 600 458.7 642.8 462.2C685.7 465.7 728.3 465.3 771.2 468C814 470.7 857 476.3 878.5 479.2L900 482L900 601L878.5 601C857 601 814 601 771.2 601C728.3 601 685.7 601 642.8 601C600 601 557 601 514.2 601C471.3 601 428.7 601 385.8 601C343 601 300 601 257.2 601C214.3 601 171.7 601 128.8 601C86 601 43 601 21.5 601L0 601Z" fill="#e34c67"></path><path d="M0 513L21.5 512.7C43 512.3 86 511.7 128.8 515.2C171.7 518.7 214.3 526.3 257.2 524.7C300 523 343 512 385.8 511.7C428.7 511.3 471.3 521.7 514.2 520C557 518.3 600 504.7 642.8 503.3C685.7 502 728.3 513 771.2 517.8C814 522.7 857 521.3 878.5 520.7L900 520L900 601L878.5 601C857 601 814 601 771.2 601C728.3 601 685.7 601 642.8 601C600 601 557 601 514.2 601C471.3 601 428.7 601 385.8 601C343 601 300 601 257.2 601C214.3 601 171.7 601 128.8 601C86 601 43 601 21.5 601L0 601Z" fill="#d53867"></path><path d="M0 554L21.5 551.5C43 549 86 544 128.8 544.5C171.7 545 214.3 551 257.2 548.7C300 546.3 343 535.7 385.8 534.5C428.7 533.3 471.3 541.7 514.2 546.7C557 551.7 600 553.3 642.8 556.3C685.7 559.3 728.3 563.7 771.2 563.5C814 563.3 857 558.7 878.5 556.3L900 554L900 601L878.5 601C857 601 814 601 771.2 601C728.3 601 685.7 601 642.8 601C600 601 557 601 514.2 601C471.3 601 428.7 601 385.8 601C343 601 300 601 257.2 601C214.3 601 171.7 601 128.8 601C86 601 43 601 21.5 601L0 601Z" fill="#c62368"></path></svg>