<svg id="visual" viewBox="0 0 900 600" width="900" height="600" xmlns="http://www.w3.org/2000/svg" xmlns:xlink="http://www.w3.org/1999/xlink" version="1.1"><rect x="0" y="0" width="900" height="600" fill="#9cbfda"></rect><path d="M0 417L21.5 406.7C43 396.3 86 375.7 128.8 378.8C171.7 382 214.3 409 257.2 419C300 429 343 422 385.8 413.8C428.7 405.7 471.3 396.3 514.2 394.2C557 392 600 397 642.8 395.2C685.7 393.3 728.3 384.7 771.2 390.5C814 396.3 857 416.7 878.5 426.8L900 437L900 601L878.5 601C857 601 814 601 771.2 601C728.3 601 685.7 601 642.8 601C600 601 557 601 514.2 601C471.3 601 428.7 601 385.8 601C343 601 300 601 257.2 601C214.3 601 171.7 601 128.8 601C86 601 43 601 21.5 601L0 601Z" fill="#fa7268"></path><path d="M0 475L21.5 474C43 473 86 471 128.8 462.2C171.7 453.3 214.3 437.7 257.2 434.3C300 431 343 440 385.8 436.5C428.7 433 471.3 417 514.2 410.2C557 403.3 600 405.7 642.8 410.5C685.7 415.3 728.3 422.7 771.2 426.2C814 429.7 857 429.3 878.5 429.2L900 429L900 601L878.5 601C857 601 814 601 771.2 601C728.3 601 685.7 601 642.8 601C600 601 557 601 514.2 601C471.3 601 428.7 601 385.8 601C343 601 300 601 257.2 601C214.3 601 171.7 601 128.8 601C86 601 43 601 21.5 601L0 601Z" fill="#ef5f67"></path><path d="M0 441L21.5 444.8C43 448.7 86 456.3 128.8 458.3C171.7 460.3 214.3 456.7 257.2 461.5C300 466.3 343 479.7 385.8 484C428.7 488.3 471.3 483.7 514.2 475.7C557 467.7 600 456.3 642.8 456.2C685.7 456 728.3 467 771.2 466C814 465 857 452 878.5 445.5L900 439L900 601L878.5 601C857 601 814 601 771.2 601C728.3 601 685.7 601 642.8 601C600 601 557 601 514.2 601C471.3 601 428.7 601 385.8 601C343 601 300 601 257.2 601C214.3 601 171.7 601 128.8 601C86 601 43 601 21.5 601L0 601Z" fill="#e34c67"></path><path d="M0 538L21.5 537.7C43 537.3 86 536.7 128.8 527.8C171.7 519 214.3 502 257.2 493C300 484 343 483 385.8 485C428.7 487 471.3 492 514.2 498.7C557 505.3 600 513.7 642.8 518.7C685.7 523.7 728.3 525.3 771.2 520.5C814 515.7 857 504.3 878.5 498.7L900 493L900 601L878.5 601C857 601 814 601 771.2 601C728.3 601 685.7 601 642.8 601C600 601 557 601 514.2 601C471.3 601 428.7 601 385.8 601C343 601 300 601 257.2 601C214.3 601 171.7 601 128.8 601C86 601 43 601 21.5 601L0 601Z" fill="#d53867"></path><path d="M0 548L21.5 545.3C43 542.7 86 537.3 128.8 535.7C171.7 534 214.3 536 257.2 540.7C300 545.3 343 552.7 385.8 556.5C428.7 560.3 471.3 560.7 514.2 560.8C557 561 600 561 642.8 555.5C685.7 550 728.3 539 771.2 540.5C814 542 857 556 878.5 563L900 570L900 601L878.5 601C857 601 814 601 771.2 601C728.3 601 685.7 601 642.8 601C600 601 557 601 514.2 601C471.3 601 428.7 601 385.8 601C343 601 300 601 257.2 601C214.3 601 171.7 601 128.8 601C86 601 43 601 21.5 601L0 601Z" fill="#c62368"></path></svg>